# xmcd
#
# Track frame offsets:
#	150
#	18667
#	33207
#	54722
#	68682
#	82325
#	96040
#	113585
#	130127
#	148167
#	165640
#	184245
#	200005
#	223800
#
# Disc length: 3293 seconds
#
# Revision: 4
# Processed by: cddbd v1.5.2PL0 Copyright (c) Steve Scherf et al.
# Submitted via: audiograbber 1.83.01
#
DISCID=d00cdb0e
DTITLE=Various Artist - Country Cares For Kids II
DYEAR=1999
DGENRE=Oldies
TTITLE0=Clint Black - Something That We Do
TTITLE1=Martina McBride - Wrong Again
TTITLE2=Lonestar - Everything's Changed
TTITLE3=Billy Ray Cyrus - Busy Man
TTITLE4=Steve Wariner - I'm Already Taken
TTITLE5=Lari White - Stepping Stone
TTITLE6=Wilkinsons - 26 Cents
TTITLE7=Kenny Chesney - When I Close My Eyes
TTITLE8=Warren Brothers - Guilty
TTITLE9=Paul Brandt - I Do
TTITLE10=Tracy Byrd - Love Lessons
TTITLE11=Kinleys - Please
TTITLE12=Vince Gill - Jenny Dreamed Of Trains
TTITLE13=Amy Grant - Somewhere Down The Road
EXTD=
EXTT0=
EXTT1=
EXTT2=
EXTT3=
EXTT4=
EXTT5=
EXTT6=
EXTT7=
EXTT8=
EXTT9=
EXTT10=
EXTT11=
EXTT12=
EXTT13=
PLAYORDER=
